<svg xmlns="http://www.w3.org/2000/svg" xmlns:xlink="http://www.w3.org/1999/xlink" width="500" zoomAndPan="magnify" viewBox="0 0 375 374.999991" height="500" preserveAspectRatio="xMidYMid meet" version="1.0"><defs><g/><clipPath id="6ae7146347"><path d="M 277 126 L 358 126 L 358 208 L 277 208 Z M 277 126 " clip-rule="nonzero"/></clipPath><clipPath id="4361e152f5"><path d="M 357.613281 172.015625 L 322.609375 207.015625 L 277.53125 161.9375 L 312.535156 126.9375 Z M 357.613281 172.015625 " clip-rule="nonzero"/></clipPath><clipPath id="c465d97e34"><path d="M 11 23 L 58 23 L 58 70 L 11 70 Z M 11 23 " clip-rule="nonzero"/></clipPath><clipPath id="186772d04d"><path d="M 80.613281 46.015625 L 45.609375 81.015625 L 0.53125 35.9375 L 35.535156 0.9375 Z M 80.613281 46.015625 " clip-rule="nonzero"/></clipPath><clipPath id="f8228177ce"><path d="M 0.351562 35.753906 L 35.351562 0.753906 L 80.429688 45.832031 L 45.429688 80.832031 Z M 0.351562 35.753906 " clip-rule="nonzero"/></clipPath><clipPath id="0b905b43e0"><path d="M 7 27 L 54 27 L 54 74 L 7 74 Z M 7 27 " clip-rule="nonzero"/></clipPath><clipPath id="0963e5a0a2"><path d="M 80.613281 46.015625 L 45.609375 81.015625 L 0.53125 35.9375 L 35.535156 0.9375 Z M 80.613281 46.015625 " clip-rule="nonzero"/></clipPath><clipPath id="4f0133f6fa"><path d="M 0.351562 35.753906 L 35.351562 0.753906 L 80.429688 45.832031 L 45.429688 80.832031 Z M 0.351562 35.753906 " clip-rule="nonzero"/></clipPath><clipPath id="838d0727ed"><path d="M 4 30 L 51 30 L 51 77 L 4 77 Z M 4 30 " clip-rule="nonzero"/></clipPath><clipPath id="40dba055b9"><path d="M 80.613281 46.015625 L 45.609375 81.015625 L 0.53125 35.9375 L 35.535156 0.9375 Z M 80.613281 46.015625 " clip-rule="nonzero"/></clipPath><clipPath id="d29c31d18c"><path d="M 0.351562 35.753906 L 35.351562 0.753906 L 80.429688 45.832031 L 45.429688 80.832031 Z M 0.351562 35.753906 " clip-rule="nonzero"/></clipPath><clipPath id="d7e1a84844"><path d="M 0.441406 34 L 47 34 L 47 81 L 0.441406 81 Z M 0.441406 34 " clip-rule="nonzero"/></clipPath><clipPath id="0182cf8845"><path d="M 80.613281 46.015625 L 45.609375 81.015625 L 0.53125 35.9375 L 35.535156 0.9375 Z M 80.613281 46.015625 " clip-rule="nonzero"/></clipPath><clipPath id="cfe96f9d18"><path d="M 0.351562 35.753906 L 35.351562 0.753906 L 80.429688 45.832031 L 45.429688 80.832031 Z M 0.351562 35.753906 " clip-rule="nonzero"/></clipPath><clipPath id="77a6319ecb"><rect x="0" width="81" y="0" height="82"/></clipPath></defs><rect x="-37.5" width="450" fill="#ffffff" y="-37.499999" height="449.999989" fill-opacity="1"/><rect x="-37.5" width="450" fill="#000000" y="-37.499999" height="449.999989" fill-opacity="1"/><g fill="#ffffff" fill-opacity="1"><g transform="translate(50.987207, 201.195544)"><g><path d="M 23.953125 0.484375 C 19.390625 0.484375 15.453125 0.15625 12.140625 -0.5 C 8.828125 -1.15625 6.285156 -2.347656 4.515625 -4.078125 C 2.742188 -5.816406 1.859375 -8.28125 1.859375 -11.46875 L 9.421875 -11.46875 C 9.421875 -10.132812 9.859375 -9.023438 10.734375 -8.140625 C 11.609375 -7.265625 13.132812 -6.617188 15.3125 -6.203125 C 17.5 -5.796875 20.535156 -5.59375 24.421875 -5.59375 C 27.578125 -5.59375 30.070312 -5.734375 31.90625 -6.015625 C 33.738281 -6.304688 35.050781 -6.753906 35.84375 -7.359375 C 36.644531 -7.960938 37.046875 -8.757812 37.046875 -9.75 C 37.046875 -10.550781 36.867188 -11.195312 36.515625 -11.6875 C 36.160156 -12.175781 35.488281 -12.5625 34.5 -12.84375 C 33.519531 -13.132812 32.128906 -13.367188 30.328125 -13.546875 C 28.523438 -13.722656 26.160156 -13.890625 23.234375 -14.046875 C 18.453125 -14.304688 14.578125 -14.769531 11.609375 -15.4375 C 8.648438 -16.101562 6.484375 -17.15625 5.109375 -18.59375 C 3.742188 -20.03125 3.0625 -21.988281 3.0625 -24.46875 C 3.0625 -26.925781 3.863281 -28.835938 5.46875 -30.203125 C 7.082031 -31.578125 9.367188 -32.539062 12.328125 -33.09375 C 15.296875 -33.65625 18.832031 -33.9375 22.9375 -33.9375 C 27.113281 -33.9375 30.710938 -33.5625 33.734375 -32.8125 C 36.765625 -32.0625 39.09375 -30.847656 40.71875 -29.171875 C 42.34375 -27.503906 43.15625 -25.300781 43.15625 -22.5625 L 35.609375 -22.5625 C 35.609375 -23.957031 35.144531 -25.035156 34.21875 -25.796875 C 33.300781 -26.566406 31.84375 -27.101562 29.84375 -27.40625 C 27.851562 -27.707031 25.234375 -27.859375 21.984375 -27.859375 C 18.960938 -27.859375 16.617188 -27.738281 14.953125 -27.5 C 13.296875 -27.269531 12.15625 -26.875 11.53125 -26.3125 C 10.914062 -25.75 10.609375 -25.007812 10.609375 -24.09375 C 10.609375 -23.351562 10.78125 -22.742188 11.125 -22.265625 C 11.476562 -21.796875 12.109375 -21.414062 13.015625 -21.125 C 13.929688 -20.84375 15.21875 -20.601562 16.875 -20.40625 C 18.53125 -20.21875 20.648438 -20.046875 23.234375 -19.890625 C 26.546875 -19.691406 29.515625 -19.457031 32.140625 -19.1875 C 34.773438 -18.914062 37.015625 -18.460938 38.859375 -17.828125 C 40.703125 -17.191406 42.117188 -16.257812 43.109375 -15.03125 C 44.097656 -13.800781 44.59375 -12.132812 44.59375 -10.03125 C 44.59375 -7.800781 44.082031 -5.992188 43.0625 -4.609375 C 42.039062 -3.222656 40.601562 -2.160156 38.75 -1.421875 C 36.90625 -0.691406 34.722656 -0.191406 32.203125 0.078125 C 29.691406 0.347656 26.941406 0.484375 23.953125 0.484375 Z M 23.953125 0.484375 "/></g></g></g><g fill="#ffffff" fill-opacity="1"><g transform="translate(96.721365, 201.195544)"><g><path d="M 2.34375 0 L 2.34375 -33.453125 L 9.890625 -33.453125 L 9.890625 -19.890625 L 39.234375 -19.890625 L 39.234375 -33.453125 L 46.796875 -33.453125 L 46.796875 0 L 39.234375 0 L 39.234375 -13.578125 L 9.890625 -13.578125 L 9.890625 0 Z M 2.34375 0 "/></g></g></g><g fill="#ffffff" fill-opacity="1"><g transform="translate(143.984752, 201.195544)"><g><path d="M 1.859375 0 L 20.078125 -33.453125 L 29.828125 -33.453125 L 48.03125 0 L 39.671875 0 L 35.609375 -7.40625 L 14.296875 -7.40625 L 10.234375 0 Z M 17.203125 -13.234375 L 32.6875 -13.234375 L 24.953125 -27.296875 Z M 17.203125 -13.234375 "/></g></g></g><g fill="#ffffff" fill-opacity="1"><g transform="translate(192.012764, 201.195544)"><g><path d="M 2.34375 0 L 2.34375 -33.453125 L 28.625 -33.453125 C 31.175781 -33.453125 33.40625 -32.96875 35.3125 -32 C 37.226562 -31.03125 38.726562 -29.632812 39.8125 -27.8125 C 40.894531 -26 41.4375 -23.847656 41.4375 -21.359375 C 41.4375 -18.554688 40.75 -16.191406 39.375 -14.265625 C 38.007812 -12.335938 36.148438 -10.960938 33.796875 -10.140625 L 40.046875 0 L 31.15625 0 L 25.53125 -9.21875 L 9.890625 -9.21875 L 9.890625 0 Z M 9.890625 -15.578125 L 26.234375 -15.578125 C 26.972656 -15.578125 27.78125 -15.609375 28.65625 -15.671875 C 29.53125 -15.734375 30.363281 -15.941406 31.15625 -16.296875 C 31.957031 -16.648438 32.613281 -17.222656 33.125 -18.015625 C 33.632812 -18.816406 33.890625 -19.929688 33.890625 -21.359375 C 33.890625 -22.796875 33.632812 -23.90625 33.125 -24.6875 C 32.613281 -25.46875 31.957031 -26.03125 31.15625 -26.375 C 30.363281 -26.726562 29.53125 -26.9375 28.65625 -27 C 27.78125 -27.0625 26.972656 -27.09375 26.234375 -27.09375 L 9.890625 -27.09375 Z M 9.890625 -15.578125 "/></g></g></g><g fill="#ffffff" fill-opacity="1"><g transform="translate(234.258306, 201.195544)"><g><path d="M 2.34375 0 L 2.34375 -33.453125 L 28.625 -33.453125 C 31.175781 -33.453125 33.40625 -32.96875 35.3125 -32 C 37.226562 -31.03125 38.726562 -29.632812 39.8125 -27.8125 C 40.894531 -26 41.4375 -23.847656 41.4375 -21.359375 C 41.4375 -18.878906 40.894531 -16.726562 39.8125 -14.90625 C 38.726562 -13.09375 37.226562 -11.691406 35.3125 -10.703125 C 33.40625 -9.710938 31.175781 -9.21875 28.625 -9.21875 L 9.890625 -9.21875 L 9.890625 0 Z M 9.890625 -15.578125 L 26.234375 -15.578125 C 26.972656 -15.578125 27.78125 -15.609375 28.65625 -15.671875 C 29.53125 -15.734375 30.363281 -15.941406 31.15625 -16.296875 C 31.957031 -16.648438 32.613281 -17.222656 33.125 -18.015625 C 33.632812 -18.816406 33.890625 -19.929688 33.890625 -21.359375 C 33.890625 -22.796875 33.632812 -23.90625 33.125 -24.6875 C 32.613281 -25.46875 31.957031 -26.03125 31.15625 -26.375 C 30.363281 -26.726562 29.53125 -26.9375 28.65625 -27 C 27.78125 -27.0625 26.972656 -27.09375 26.234375 -27.09375 L 9.890625 -27.09375 Z M 9.890625 -15.578125 "/></g></g></g><g fill="#ffffff" fill-opacity="1"><g transform="translate(276.838382, 201.195544)"><g><path d="M 2.34375 0 L 2.34375 -33.453125 L 37.71875 -33.453125 L 37.71875 -27.390625 L 9.890625 -27.390625 L 9.890625 -19.59375 L 37.71875 -19.59375 L 37.71875 -13.859375 L 9.890625 -13.859375 L 9.890625 -6.0625 L 37.71875 -6.0625 L 37.71875 0 Z M 2.34375 0 "/></g></g></g><g fill="#ffffff" fill-opacity="1"><g transform="translate(316.416877, 201.195544)"><g/></g></g><g fill="#ffffff" fill-opacity="1"><g transform="translate(57.518413, 219.866162)"><g><path d="M 5.1875 -9.046875 C 5.8125 -9.046875 6.398438 -8.929688 6.953125 -8.703125 C 7.515625 -8.484375 8.019531 -8.132812 8.46875 -7.65625 C 8.570312 -7.53125 8.613281 -7.410156 8.59375 -7.296875 C 8.570312 -7.179688 8.515625 -7.082031 8.421875 -7 C 8.328125 -6.925781 8.21875 -6.882812 8.09375 -6.875 C 7.96875 -6.875 7.851562 -6.925781 7.75 -7.03125 C 7.382812 -7.425781 6.984375 -7.703125 6.546875 -7.859375 C 6.117188 -8.015625 5.671875 -8.09375 5.203125 -8.09375 C 4.828125 -8.09375 4.429688 -8.035156 4.015625 -7.921875 C 3.597656 -7.804688 3.203125 -7.617188 2.828125 -7.359375 C 2.460938 -7.097656 2.160156 -6.738281 1.921875 -6.28125 C 1.691406 -5.820312 1.578125 -5.25 1.578125 -4.5625 C 1.578125 -3.863281 1.738281 -3.226562 2.0625 -2.65625 C 2.382812 -2.09375 2.816406 -1.644531 3.359375 -1.3125 C 3.898438 -0.988281 4.488281 -0.828125 5.125 -0.828125 C 5.664062 -0.828125 6.175781 -0.941406 6.65625 -1.171875 C 7.132812 -1.410156 7.539062 -1.738281 7.875 -2.15625 C 7.945312 -2.269531 8.046875 -2.332031 8.171875 -2.34375 C 8.296875 -2.351562 8.410156 -2.320312 8.515625 -2.25 C 8.628906 -2.175781 8.707031 -2.082031 8.75 -1.96875 C 8.789062 -1.851562 8.765625 -1.726562 8.671875 -1.59375 C 8.410156 -1.226562 8.082031 -0.914062 7.6875 -0.65625 C 7.300781 -0.394531 6.882812 -0.195312 6.4375 -0.0625 C 5.988281 0.0703125 5.539062 0.140625 5.09375 0.140625 C 4.5 0.140625 3.929688 0.0234375 3.390625 -0.203125 C 2.847656 -0.441406 2.363281 -0.769531 1.9375 -1.1875 C 1.519531 -1.601562 1.191406 -2.101562 0.953125 -2.6875 C 0.710938 -3.269531 0.59375 -3.898438 0.59375 -4.578125 C 0.59375 -5.378906 0.738281 -6.0625 1.03125 -6.625 C 1.320312 -7.1875 1.703125 -7.644531 2.171875 -8 C 2.648438 -8.363281 3.15625 -8.628906 3.6875 -8.796875 C 4.21875 -8.960938 4.71875 -9.046875 5.1875 -9.046875 Z M 5.1875 -9.046875 "/></g></g></g><g fill="#ffffff" fill-opacity="1"><g transform="translate(66.851206, 219.866162)"><g><path d="M 4.71875 -9.046875 C 4.925781 -9.046875 5.078125 -8.957031 5.171875 -8.78125 L 9.296875 -0.671875 C 9.398438 -0.472656 9.390625 -0.3125 9.265625 -0.1875 C 9.148438 -0.0625 9 0 8.8125 0 C 8.726562 0 8.640625 -0.0195312 8.546875 -0.0625 C 8.460938 -0.101562 8.398438 -0.171875 8.359375 -0.265625 L 7.34375 -2.25 L 2.09375 -2.25 L 1.046875 -0.25 C 0.953125 -0.0820312 0.8125 0 0.625 0 C 0.46875 0 0.320312 -0.0625 0.1875 -0.1875 C 0.0625 -0.320312 0.0390625 -0.476562 0.125 -0.65625 L 4.25 -8.78125 C 4.300781 -8.875 4.367188 -8.941406 4.453125 -8.984375 C 4.535156 -9.023438 4.625 -9.046875 4.71875 -9.046875 Z M 4.71875 -7.546875 L 2.5 -3.140625 L 6.921875 -3.140625 Z M 4.71875 -7.546875 "/></g></g></g><g fill="#ffffff" fill-opacity="1"><g transform="translate(76.603758, 219.866162)"><g><path d="M 2.09375 -3.109375 L 2.09375 -0.484375 C 2.09375 -0.328125 2.035156 -0.207031 1.921875 -0.125 C 1.816406 -0.0390625 1.695312 0 1.5625 0 C 1.445312 0 1.332031 -0.0390625 1.21875 -0.125 C 1.113281 -0.207031 1.0625 -0.320312 1.0625 -0.46875 L 1.0625 -8.40625 C 1.0625 -8.5625 1.109375 -8.679688 1.203125 -8.765625 C 1.304688 -8.859375 1.429688 -8.90625 1.578125 -8.90625 L 4.90625 -8.90625 C 5.71875 -8.90625 6.390625 -8.765625 6.921875 -8.484375 C 7.460938 -8.210938 7.867188 -7.847656 8.140625 -7.390625 C 8.410156 -6.941406 8.546875 -6.441406 8.546875 -5.890625 C 8.546875 -5.179688 8.34375 -4.585938 7.9375 -4.109375 C 7.539062 -3.628906 6.914062 -3.3125 6.0625 -3.15625 L 8.203125 -0.859375 C 8.335938 -0.722656 8.394531 -0.585938 8.375 -0.453125 C 8.363281 -0.328125 8.3125 -0.21875 8.21875 -0.125 C 8.125 -0.0390625 8.007812 0 7.875 0 C 7.738281 0 7.613281 -0.0625 7.5 -0.1875 L 4.796875 -3.109375 Z M 2.09375 -3.984375 L 4.90625 -3.984375 C 5.8125 -3.984375 6.472656 -4.160156 6.890625 -4.515625 C 7.304688 -4.878906 7.515625 -5.320312 7.515625 -5.84375 C 7.503906 -6.445312 7.269531 -6.953125 6.8125 -7.359375 C 6.351562 -7.765625 5.71875 -7.96875 4.90625 -7.96875 L 2.09375 -7.96875 Z M 2.09375 -3.984375 "/></g></g></g><g fill="#ffffff" fill-opacity="1"><g transform="translate(85.95057, 219.866162)"><g><path d="M 2.078125 -2.625 L 2.078125 -0.46875 C 2.078125 -0.3125 2.023438 -0.191406 1.921875 -0.109375 C 1.816406 -0.0351562 1.695312 0 1.5625 0 C 1.445312 0 1.332031 -0.0351562 1.21875 -0.109375 C 1.113281 -0.191406 1.0625 -0.3125 1.0625 -0.46875 L 1.0625 -8.40625 C 1.0625 -8.5625 1.113281 -8.679688 1.21875 -8.765625 C 1.320312 -8.859375 1.441406 -8.90625 1.578125 -8.90625 L 4.625 -8.90625 C 5.4375 -8.90625 6.101562 -8.75 6.625 -8.4375 C 7.144531 -8.125 7.53125 -7.722656 7.78125 -7.234375 C 8.039062 -6.742188 8.171875 -6.226562 8.171875 -5.6875 C 8.171875 -5.125 8.039062 -4.609375 7.78125 -4.140625 C 7.519531 -3.671875 7.125 -3.300781 6.59375 -3.03125 C 6.070312 -2.757812 5.398438 -2.625 4.578125 -2.625 Z M 2.078125 -3.53125 L 4.578125 -3.53125 C 5.203125 -3.53125 5.703125 -3.632812 6.078125 -3.84375 C 6.460938 -4.050781 6.742188 -4.320312 6.921875 -4.65625 C 7.097656 -4.988281 7.1875 -5.332031 7.1875 -5.6875 C 7.1875 -6.070312 7.082031 -6.441406 6.875 -6.796875 C 6.675781 -7.148438 6.390625 -7.4375 6.015625 -7.65625 C 5.640625 -7.882812 5.179688 -8 4.640625 -8 L 2.078125 -8 Z M 2.078125 -3.53125 "/></g></g></g><g fill="#ffffff" fill-opacity="1"><g transform="translate(94.905571, 219.866162)"><g><path d="M 2.078125 -0.921875 L 7.609375 -0.921875 C 7.753906 -0.921875 7.863281 -0.875 7.9375 -0.78125 C 8.019531 -0.6875 8.0625 -0.578125 8.0625 -0.453125 C 8.070312 -0.335938 8.039062 -0.234375 7.96875 -0.140625 C 7.894531 -0.046875 7.773438 0 7.609375 0 L 1.703125 0 C 1.503906 0 1.347656 -0.0546875 1.234375 -0.171875 C 1.117188 -0.296875 1.0625 -0.441406 1.0625 -0.609375 L 1.0625 -8.296875 C 1.0625 -8.460938 1.117188 -8.601562 1.234375 -8.71875 C 1.347656 -8.84375 1.503906 -8.90625 1.703125 -8.90625 L 7.609375 -8.90625 C 7.765625 -8.90625 7.878906 -8.859375 7.953125 -8.765625 C 8.023438 -8.679688 8.054688 -8.578125 8.046875 -8.453125 C 8.046875 -8.335938 8.007812 -8.234375 7.9375 -8.140625 C 7.863281 -8.054688 7.753906 -8.015625 7.609375 -8.015625 L 2.078125 -8.015625 L 2.078125 -4.859375 L 7.34375 -4.859375 C 7.476562 -4.859375 7.582031 -4.8125 7.65625 -4.71875 C 7.726562 -4.632812 7.765625 -4.53125 7.765625 -4.40625 C 7.765625 -4.289062 7.726562 -4.1875 7.65625 -4.09375 C 7.59375 -4.007812 7.488281 -3.96875 7.34375 -3.96875 L 2.078125 -3.96875 Z M 2.078125 -0.921875 "/></g></g></g><g fill="#ffffff" fill-opacity="1"><g transform="translate(103.846577, 219.866162)"><g><path d="M 7.375 -8.453125 C 7.375 -8.609375 7.429688 -8.722656 7.546875 -8.796875 C 7.660156 -8.867188 7.785156 -8.90625 7.921875 -8.90625 C 8.054688 -8.90625 8.175781 -8.867188 8.28125 -8.796875 C 8.382812 -8.722656 8.4375 -8.609375 8.4375 -8.453125 L 8.4375 -0.609375 C 8.4375 -0.398438 8.367188 -0.242188 8.234375 -0.140625 C 8.097656 -0.046875 7.953125 0 7.796875 0 C 7.671875 0 7.550781 -0.0234375 7.4375 -0.078125 C 7.332031 -0.140625 7.25 -0.222656 7.1875 -0.328125 L 1.953125 -7.265625 L 2.0625 -5.328125 L 2.0625 -0.515625 C 2.0625 -0.335938 2.003906 -0.207031 1.890625 -0.125 C 1.773438 -0.0390625 1.65625 0 1.53125 0 C 1.394531 0 1.269531 -0.0390625 1.15625 -0.125 C 1.050781 -0.207031 1 -0.335938 1 -0.515625 L 1 -8.28125 C 1 -8.488281 1.050781 -8.644531 1.15625 -8.75 C 1.269531 -8.851562 1.398438 -8.90625 1.546875 -8.90625 C 1.796875 -8.90625 1.988281 -8.796875 2.125 -8.578125 L 7.515625 -1.5 L 7.375 -3.609375 Z M 7.375 -8.453125 "/></g></g></g><g fill="#ffffff" fill-opacity="1"><g transform="translate(113.515174, 219.866162)"><g><path d="M 7.59375 -8.90625 C 7.757812 -8.90625 7.882812 -8.851562 7.96875 -8.75 C 8.0625 -8.65625 8.109375 -8.546875 8.109375 -8.421875 C 8.109375 -8.296875 8.0625 -8.179688 7.96875 -8.078125 C 7.882812 -7.984375 7.757812 -7.9375 7.59375 -7.9375 L 4.46875 -7.9375 L 4.484375 -0.515625 C 4.484375 -0.335938 4.421875 -0.207031 4.296875 -0.125 C 4.179688 -0.0390625 4.066406 0 3.953125 0 C 3.828125 0 3.707031 -0.0390625 3.59375 -0.125 C 3.488281 -0.207031 3.4375 -0.335938 3.4375 -0.515625 L 3.4375 -7.9375 L 0.34375 -7.9375 C 0.164062 -7.9375 0.0390625 -7.984375 -0.03125 -8.078125 C -0.113281 -8.179688 -0.15625 -8.296875 -0.15625 -8.421875 C -0.15625 -8.546875 -0.113281 -8.65625 -0.03125 -8.75 C 0.0390625 -8.851562 0.164062 -8.90625 0.34375 -8.90625 Z M 7.59375 -8.90625 "/></g></g></g><g fill="#ffffff" fill-opacity="1"><g transform="translate(121.756579, 219.866162)"><g><path d="M 2.09375 -3.109375 L 2.09375 -0.484375 C 2.09375 -0.328125 2.035156 -0.207031 1.921875 -0.125 C 1.816406 -0.0390625 1.695312 0 1.5625 0 C 1.445312 0 1.332031 -0.0390625 1.21875 -0.125 C 1.113281 -0.207031 1.0625 -0.320312 1.0625 -0.46875 L 1.0625 -8.40625 C 1.0625 -8.5625 1.109375 -8.679688 1.203125 -8.765625 C 1.304688 -8.859375 1.429688 -8.90625 1.578125 -8.90625 L 4.90625 -8.90625 C 5.71875 -8.90625 6.390625 -8.765625 6.921875 -8.484375 C 7.460938 -8.210938 7.867188 -7.847656 8.140625 -7.390625 C 8.410156 -6.941406 8.546875 -6.441406 8.546875 -5.890625 C 8.546875 -5.179688 8.34375 -4.585938 7.9375 -4.109375 C 7.539062 -3.628906 6.914062 -3.3125 6.0625 -3.15625 L 8.203125 -0.859375 C 8.335938 -0.722656 8.394531 -0.585938 8.375 -0.453125 C 8.363281 -0.328125 8.3125 -0.21875 8.21875 -0.125 C 8.125 -0.0390625 8.007812 0 7.875 0 C 7.738281 0 7.613281 -0.0625 7.5 -0.1875 L 4.796875 -3.109375 Z M 2.09375 -3.984375 L 4.90625 -3.984375 C 5.8125 -3.984375 6.472656 -4.160156 6.890625 -4.515625 C 7.304688 -4.878906 7.515625 -5.320312 7.515625 -5.84375 C 7.503906 -6.445312 7.269531 -6.953125 6.8125 -7.359375 C 6.351562 -7.765625 5.71875 -7.96875 4.90625 -7.96875 L 2.09375 -7.96875 Z M 2.09375 -3.984375 "/></g></g></g><g fill="#ffffff" fill-opacity="1"><g transform="translate(131.103392, 219.866162)"><g><path d="M 3.671875 -3.59375 L 0.21875 -8.140625 C 0.0703125 -8.335938 0.0625 -8.515625 0.1875 -8.671875 C 0.320312 -8.828125 0.476562 -8.90625 0.65625 -8.90625 C 0.851562 -8.90625 1.003906 -8.828125 1.109375 -8.671875 L 4.171875 -4.484375 L 7.265625 -8.671875 C 7.367188 -8.828125 7.515625 -8.90625 7.703125 -8.90625 C 7.867188 -8.90625 8.007812 -8.832031 8.125 -8.6875 C 8.238281 -8.539062 8.234375 -8.363281 8.109375 -8.15625 L 4.703125 -3.59375 L 4.703125 -0.515625 C 4.703125 -0.335938 4.644531 -0.207031 4.53125 -0.125 C 4.425781 -0.0390625 4.3125 0 4.1875 0 C 4.039062 0 3.914062 -0.0390625 3.8125 -0.125 C 3.71875 -0.207031 3.671875 -0.335938 3.671875 -0.515625 Z M 3.671875 -3.59375 "/></g></g></g><g clip-path="url(#6ae7146347)"><g clip-path="url(#4361e152f5)"><g transform="matrix(1, 0, 0, 1, 277, 126)"><g clip-path="url(#77a6319ecb)"><g clip-path="url(#c465d97e34)"><g clip-path="url(#186772d04d)"><g clip-path="url(#f8228177ce)"><path fill="#18cb96" d="M 11.871094 24.234375 C 12.816406 24.183594 13.757812 24.148438 14.699219 24.105469 L 17.527344 24 C 19.414062 23.929688 21.296875 23.867188 23.1875 23.820312 C 26.957031 23.714844 30.730469 23.632812 34.5 23.570312 L 37.332031 23.527344 L 40.160156 23.492188 C 42.042969 23.464844 43.929688 23.445312 45.816406 23.433594 L 51.472656 23.402344 L 57.128906 23.390625 L 57.976562 23.386719 L 57.976562 24.234375 L 57.96875 29.894531 L 57.933594 35.550781 C 57.914062 37.433594 57.902344 39.320312 57.875 41.207031 L 57.839844 44.035156 L 57.796875 46.863281 C 57.730469 50.636719 57.648438 54.410156 57.546875 58.179688 C 57.492188 60.0625 57.429688 61.949219 57.367188 63.835938 L 57.257812 66.660156 C 57.214844 67.605469 57.179688 68.550781 57.132812 69.492188 C 57.082031 68.550781 57.046875 67.609375 57.003906 66.664062 L 56.894531 63.839844 C 56.824219 61.957031 56.765625 60.070312 56.714844 58.183594 C 56.609375 54.414062 56.527344 50.640625 56.464844 46.867188 L 56.421875 44.039062 L 56.386719 41.210938 C 56.359375 39.324219 56.347656 37.441406 56.328125 35.554688 L 56.296875 29.894531 L 56.289062 24.238281 L 57.132812 25.082031 L 51.472656 25.074219 L 45.816406 25.035156 C 43.929688 25.015625 42.042969 24.996094 40.160156 24.976562 L 37.332031 24.941406 L 34.5 24.894531 C 30.726562 24.832031 26.957031 24.746094 23.1875 24.648438 C 21.300781 24.59375 19.414062 24.535156 17.527344 24.464844 L 14.699219 24.359375 C 13.757812 24.316406 12.816406 24.28125 11.871094 24.234375 Z M 11.871094 24.234375 " fill-opacity="1" fill-rule="nonzero"/></g></g></g><g clip-path="url(#0b905b43e0)"><g clip-path="url(#0963e5a0a2)"><g clip-path="url(#4f0133f6fa)"><path fill="#18cb96" d="M 7.796875 28.308594 C 8.738281 28.261719 9.683594 28.222656 10.625 28.179688 L 13.453125 28.078125 C 15.335938 28.003906 17.222656 27.945312 19.113281 27.894531 C 22.882812 27.789062 26.65625 27.707031 30.425781 27.644531 L 33.253906 27.601562 L 36.082031 27.566406 C 37.96875 27.539062 39.855469 27.519531 41.742188 27.507812 L 47.398438 27.476562 L 53.054688 27.464844 L 53.902344 27.460938 L 53.902344 28.308594 L 53.890625 33.96875 L 53.859375 39.625 C 53.839844 41.511719 53.828125 43.398438 53.800781 45.28125 L 53.765625 48.109375 L 53.71875 50.9375 C 53.65625 54.710938 53.570312 58.484375 53.472656 62.253906 C 53.417969 64.136719 53.355469 66.023438 53.289062 67.910156 L 53.183594 70.734375 C 53.140625 71.679688 53.105469 72.625 53.058594 73.570312 C 53.007812 72.625 52.972656 71.683594 52.929688 70.742188 L 52.824219 67.914062 C 52.75 66.03125 52.691406 64.144531 52.644531 62.253906 C 52.535156 58.484375 52.453125 54.710938 52.394531 50.941406 L 52.347656 48.113281 L 52.3125 45.285156 C 52.285156 43.398438 52.273438 41.511719 52.257812 39.625 L 52.222656 33.96875 L 52.214844 28.308594 L 53.058594 29.15625 L 47.398438 29.144531 L 41.742188 29.109375 C 39.855469 29.089844 37.96875 29.070312 36.082031 29.050781 L 33.253906 29.015625 L 30.425781 28.972656 C 26.652344 28.90625 22.882812 28.820312 19.113281 28.722656 C 17.222656 28.667969 15.339844 28.609375 13.453125 28.542969 L 10.625 28.4375 C 9.683594 28.394531 8.738281 28.359375 7.796875 28.308594 Z M 7.796875 28.308594 " fill-opacity="1" fill-rule="nonzero"/></g></g></g><g clip-path="url(#838d0727ed)"><g clip-path="url(#40dba055b9)"><g clip-path="url(#d29c31d18c)"><path fill="#18cb96" d="M 4.429688 31.675781 C 5.371094 31.628906 6.3125 31.59375 7.257812 31.550781 L 10.085938 31.445312 C 11.96875 31.371094 13.855469 31.3125 15.742188 31.265625 C 19.515625 31.160156 23.285156 31.074219 27.058594 31.015625 L 29.886719 30.96875 L 32.714844 30.933594 C 34.601562 30.910156 36.484375 30.890625 38.371094 30.878906 L 44.03125 30.84375 L 49.6875 30.832031 L 50.535156 30.832031 L 50.53125 31.675781 L 50.523438 37.335938 L 50.488281 42.992188 C 50.472656 44.878906 50.457031 46.765625 50.433594 48.648438 L 50.398438 51.480469 L 50.351562 54.308594 C 50.285156 58.082031 50.203125 61.851562 50.101562 65.621094 C 50.046875 67.507812 49.988281 69.394531 49.921875 71.28125 L 49.8125 74.105469 C 49.773438 75.050781 49.734375 75.992188 49.6875 76.9375 C 49.640625 75.996094 49.605469 75.050781 49.5625 74.109375 L 49.453125 71.28125 C 49.382812 69.398438 49.320312 67.511719 49.273438 65.625 C 49.167969 61.851562 49.085938 58.082031 49.023438 54.308594 L 48.980469 51.480469 L 48.945312 48.652344 C 48.917969 46.765625 48.90625 44.878906 48.886719 42.996094 L 48.855469 37.335938 L 48.847656 31.679688 L 49.691406 32.523438 L 44.035156 32.511719 L 38.371094 32.476562 C 36.488281 32.460938 34.601562 32.441406 32.714844 32.421875 L 29.886719 32.382812 L 27.058594 32.339844 C 23.285156 32.273438 19.511719 32.191406 15.742188 32.089844 C 13.855469 32.039062 11.96875 31.976562 10.085938 31.910156 L 7.257812 31.804688 C 6.3125 31.761719 5.371094 31.726562 4.429688 31.675781 Z M 4.429688 31.675781 " fill-opacity="1" fill-rule="nonzero"/></g></g></g><g clip-path="url(#d7e1a84844)"><g clip-path="url(#0182cf8845)"><g clip-path="url(#cfe96f9d18)"><path fill="#18cb96" d="M 0.351562 35.753906 C 1.296875 35.703125 2.238281 35.667969 3.183594 35.625 L 6.011719 35.519531 C 7.894531 35.449219 9.78125 35.386719 11.667969 35.339844 C 15.441406 35.234375 19.210938 35.152344 22.984375 35.089844 L 25.8125 35.046875 L 28.640625 35.011719 C 30.523438 34.984375 32.410156 34.964844 34.296875 34.953125 L 39.953125 34.917969 L 45.613281 34.90625 L 46.457031 34.90625 L 46.457031 35.753906 L 46.449219 41.410156 L 46.414062 47.066406 C 46.394531 48.953125 46.382812 50.839844 46.359375 52.726562 L 46.320312 55.554688 L 46.277344 58.382812 C 46.210938 62.15625 46.128906 65.925781 46.027344 69.695312 C 45.972656 71.582031 45.914062 73.46875 45.847656 75.355469 L 45.738281 78.179688 C 45.695312 79.125 45.660156 80.070312 45.613281 81.011719 C 45.5625 80.070312 45.527344 79.128906 45.484375 78.183594 L 45.378906 75.359375 C 45.304688 73.476562 45.246094 71.589844 45.195312 69.703125 C 45.089844 65.929688 45.007812 62.160156 44.949219 58.386719 L 44.902344 55.558594 L 44.867188 52.730469 C 44.839844 50.84375 44.828125 48.957031 44.808594 47.074219 L 44.777344 41.414062 L 44.769531 35.757812 L 45.613281 36.601562 L 39.957031 36.589844 L 34.296875 36.550781 C 32.410156 36.535156 30.527344 36.515625 28.640625 36.496094 L 25.8125 36.460938 L 22.984375 36.414062 C 19.210938 36.347656 15.4375 36.265625 11.667969 36.164062 C 9.78125 36.113281 7.894531 36.050781 6.011719 35.984375 L 3.183594 35.878906 C 2.238281 35.835938 1.296875 35.800781 0.351562 35.753906 Z M 0.351562 35.753906 " fill-opacity="1" fill-rule="nonzero"/></g></g></g></g></g></g></g></svg>